<svg xmlns="http://www.w3.org/2000/svg" xmlns:xlink="http://www.w3.org/1999/xlink" version="1.1" x="0px" y="0px" viewBox="0 0 100 125" style="enable-background:new 0 0 100 100;" xml:space="preserve" width = "40" >
<path d="M10.7753906,63.9082031c12.8129883,3.0458984,31.7539062,10,49.2260742,25.8330078  C60.1928711,89.9145508,60.4331055,90,60.6723633,90c0.2724609,0,0.5439453-0.1108398,0.7416992-0.3286133  c0.3706055-0.4091797,0.3393555-1.0415039-0.0698242-1.4125977C43.5576172,72.1411133,24.2788086,65.0625,11.2382812,61.9628906  c-0.5385742-0.1303711-1.0771484,0.2041016-1.2041016,0.7412109C9.90625,63.2416992,10.2382812,63.7807617,10.7753906,63.9082031z"/>
<path d="M10.7573242,74.5922852C20.7177734,77.1601562,30.625,82.4072266,39.4082031,89.7666016  C39.5952148,89.9233398,39.8232422,90,40.0498047,90c0.2856445,0,0.5693359-0.121582,0.7670898-0.3579102  c0.3544922-0.4233398,0.2988281-1.0537109-0.1245117-1.4086914c-9.0097656-7.5493164-19.1884766-12.9360352-29.4360352-15.5776367  c-0.5351562-0.1376953-1.0795898,0.184082-1.2177734,0.71875S10.2226562,74.4545898,10.7573242,74.5922852z"/>
<path d="M57.1074219,26.5722656c0-3.9155273-3.1855469-7.1010742-7.1005859-7.1010742  c-3.9160156,0-7.1015625,3.1855469-7.1015625,7.1010742s3.1855469,7.1010742,7.1015625,7.1010742  C53.921875,33.6733398,57.1074219,30.487793,57.1074219,26.5722656z M50.0068359,31.6733398  c-2.8129883,0-5.1015625-2.2885742-5.1015625-5.1010742s2.2885742-5.1010742,5.1015625-5.1010742  c2.8125,0,5.1005859,2.2885742,5.1005859,5.1010742S52.8193359,31.6733398,50.0068359,31.6733398z"/>
<path d="M51.0068359,15.4335938V11c0-0.5522461-0.4477539-1-1-1s-1,0.4477539-1,1v4.4335938c0,0.5522461,0.4477539,1,1,1  S51.0068359,15.9858398,51.0068359,15.4335938z"/>
<path d="M43.5712891,17.4262695c0.1855469,0.3208008,0.5214844,0.5,0.8671875,0.5  c0.1694336,0,0.3417969-0.0429688,0.4990234-0.1337891c0.4785156-0.2763672,0.6420898-0.8881836,0.3662109-1.3662109  l-2.2172852-3.8398438c-0.2763672-0.4780273-0.8886719-0.6435547-1.3662109-0.3662109  c-0.4785156,0.2763672-0.6420898,0.8881836-0.3662109,1.3662109L43.5712891,17.4262695z"/>
<path d="M40.8603516,20.1367188l-3.8398438-2.2167969c-0.4804688-0.2763672-1.090332-0.1123047-1.3662109,0.3662109  s-0.1123047,1.0898438,0.3662109,1.3662109l3.8398438,2.2167969c0.1577148,0.0908203,0.3295898,0.1337891,0.4990234,0.1337891  c0.3457031,0,0.6816406-0.1791992,0.8671875-0.5C41.5024414,21.0244141,41.3388672,20.4130859,40.8603516,20.1367188z"/>
<path d="M33.434082,26.5722656c0,0.5522461,0.4477539,1,1,1h4.434082c0.5522461,0,1-0.4477539,1-1s-0.4477539-1-1-1h-4.434082  C33.8818359,25.5722656,33.434082,26.0200195,33.434082,26.5722656z"/>
<path d="M36.5214844,35.3583984c0.1694336,0,0.3413086-0.0429688,0.4990234-0.1337891l3.8398438-2.2167969  c0.4785156-0.2763672,0.6420898-0.8876953,0.3662109-1.3662109c-0.2768555-0.4790039-0.8876953-0.6435547-1.3662109-0.3662109  l-3.8398438,2.2167969c-0.4785156,0.2763672-0.6420898,0.8876953-0.3662109,1.3662109  C35.8398438,35.1791992,36.1757812,35.3583984,36.5214844,35.3583984z"/>
<path d="M41.7202148,40.9248047c0.1572266,0.0908203,0.3295898,0.1337891,0.4990234,0.1337891  c0.3457031,0,0.6816406-0.1791992,0.8671875-0.5l2.2172852-3.8398438c0.2758789-0.4780273,0.1123047-1.0898438-0.3662109-1.3662109  c-0.4790039-0.2763672-1.0898438-0.1123047-1.3662109,0.3662109l-2.2172852,3.8398438  C41.078125,40.0366211,41.2416992,40.6484375,41.7202148,40.9248047z"/>
<path d="M49.0068359,37.7109375v4.4335938c0,0.5522461,0.4477539,1,1,1s1-0.4477539,1-1v-4.4335938c0-0.5522461-0.4477539-1-1-1  S49.0068359,37.1586914,49.0068359,37.7109375z"/>
<path d="M56.9267578,40.5585938c0.1855469,0.3208008,0.5214844,0.5,0.8671875,0.5  c0.1694336,0,0.3417969-0.0429688,0.4990234-0.1337891c0.4785156-0.2763672,0.6420898-0.8881836,0.3662109-1.3662109  L56.4418945,35.71875c-0.2768555-0.4785156-0.8891602-0.6425781-1.3662109-0.3662109  c-0.4785156,0.2763672-0.6420898,0.8881836-0.3662109,1.3662109L56.9267578,40.5585938z"/>
<path d="M59.152832,33.0078125l3.8398438,2.2167969c0.1577148,0.0908203,0.3295898,0.1337891,0.4990234,0.1337891  c0.3457031,0,0.6816406-0.1791992,0.8671875-0.5c0.2758789-0.4785156,0.1123047-1.0898438-0.3662109-1.3662109l-3.8398438-2.2167969  c-0.4804688-0.2773438-1.0898438-0.112793-1.3662109,0.3662109C58.5107422,32.1201172,58.6743164,32.7314453,59.152832,33.0078125z"/>
<path d="M66.5791016,26.5722656c0-0.5522461-0.4477539-1-1-1h-4.434082c-0.5522461,0-1,0.4477539-1,1s0.4477539,1,1,1h4.434082  C66.1313477,27.5722656,66.5791016,27.1245117,66.5791016,26.5722656z"/>
<path d="M59.6538086,22.0029297c0.1694336,0,0.3413086-0.0429688,0.4990234-0.1337891l3.8398438-2.2167969  c0.4785156-0.2763672,0.6420898-0.8876953,0.3662109-1.3662109c-0.2768555-0.4785156-0.8876953-0.6425781-1.3662109-0.3662109  l-3.8398438,2.2167969c-0.4785156,0.2763672-0.6420898,0.8876953-0.3662109,1.3662109  C58.972168,21.8237305,59.3081055,22.0029297,59.6538086,22.0029297z"/>
<path d="M58.2929688,12.2202148c-0.4794922-0.2773438-1.0898438-0.1118164-1.3662109,0.3662109l-2.2172852,3.8398438  c-0.2758789,0.4780273-0.1123047,1.0898438,0.3662109,1.3662109c0.1572266,0.0908203,0.3295898,0.1337891,0.4990234,0.1337891  c0.3457031,0,0.6816406-0.1791992,0.8671875-0.5l2.2172852-3.8398438  C58.9350586,13.1083984,58.7714844,12.496582,58.2929688,12.2202148z"/>
<path d="M89.1459961,37.109375c-2.3792725-0.3341064-4.4587402-0.1584473-6.2259521,0.5090332  c-0.1748657-2.1135864-1.0408325-5.782959-4.6895752-8.6101074c-0.3603516-0.2792969-0.8642578-0.2792969-1.2246094,0  c-3.6485596,2.8267822-4.5149536,6.4955444-4.6900024,8.6092529c-1.767334-0.6672974-3.8465576-0.8428345-6.2255249-0.5081787  c-0.4936523,0.0693359-0.8608398,0.4916992-0.8608398,0.9902344c0,6.4956055,5.0244141,11.8393555,11.3911133,12.3491211v4.1945801  c-7.3286133,1.9537964-16.7186279,5.2540283-26.6333618,10.7940063c-9.914978-5.5321045-19.2838745-8.8365479-26.602478-10.7907715  v-4.1983032c6.3637695-0.5126953,11.3857422-5.8549805,11.3857422-12.3486328c0-0.4985352-0.3671875-0.9208984-0.8608398-0.9902344  c-2.3789673-0.3341064-4.458374-0.1586304-6.2255249,0.508728c-0.1749268-2.1135864-1.0411377-5.7827759-4.6900024-8.6098022  c-0.3603516-0.2792969-0.8642578-0.2792969-1.2246094,0c-3.6483154,2.8268433-4.5145264,6.4957886-4.6895142,8.609436  c-1.7684326-0.6680298-3.8486938-0.8440552-6.2260132-0.5083618c-0.4936523,0.0693359-0.8608398,0.4916992-0.8608398,0.9902344  c0,6.4956055,5.0249023,11.8393555,11.3916016,12.3491211v3.6838989c-4.4606934-1.102356-8.0189819-1.6869507-10.2475586-1.9797974  c-0.5532227-0.0712891-1.050293,0.3134766-1.1220703,0.8613281s0.3139648,1.0498047,0.8613281,1.1220703  c9.1582031,1.2026367,41.0073242,7.3208008,66.3393555,35.5317383C77.4135742,89.8881836,77.6860352,90,77.9604492,90  c0.237793,0,0.4765625-0.0844727,0.6674805-0.2558594c0.4111328-0.3691406,0.4453125-1.0014648,0.0761719-1.4121094  c-2.0941162-2.3320923-4.2351074-4.5010986-6.401062-6.5460205c5.4105835-2.8078003,10.9716187-4.9876709,16.9684448-6.6351318  c0.5327148-0.1464844,0.8457031-0.6967773,0.699707-1.2290039c-0.1464844-0.5327148-0.6977539-0.8486328-1.2290039-0.699707  c-6.3690796,1.7496948-12.2591553,4.0821533-17.9951172,7.1170654c-2.6029053-2.3647461-5.2389526-4.5324707-7.8835449-6.5228882  c10.4375-5.4715576,20.0546265-8.4059448,26.3742676-9.9081421c0.5371094-0.1274414,0.8691406-0.6665039,0.7412109-1.2041016  c-0.1274414-0.5375977-0.6679688-0.8725586-1.2041016-0.7412109c-6.6032715,1.5693359-16.7426758,4.6711426-27.6905518,10.5303955  c-3.0302734-2.1879272-6.0598145-4.1347046-9.0523071-5.8862305c16.5223999-8.9967651,31.381897-11.7194214,37.1051636-12.4708252  c0.5473633-0.0722656,0.9331055-0.5742188,0.8613281-1.1220703c-0.0722656-0.5478516-0.5742188-0.9316406-1.1220703-0.8613281  c-2.215271,0.2910767-5.7750244,0.8703613-10.2558594,1.9761353v-3.6807251  c6.3642578-0.5117188,11.3862305-5.8549805,11.3862305-12.3486328  C90.0068359,37.6010742,89.6396484,37.1787109,89.1459961,37.109375z M32.7329102,38.9892578  c-0.4248047,4.9824219-4.3813477,8.9726562-9.3481445,9.4511719V47.715332c0-0.0449219,0.0493164-4.5009766,2.9521484-7.0161133  C27.9023438,39.34375,30.0493164,38.769043,32.7329102,38.9892578z M22.3823242,31.1005859  c3.130188,2.8106079,3.3632812,6.3363647,3.3417969,7.5545044c-0.2431641,0.1710815-0.4832153,0.3468628-0.7094727,0.5436401  c-1.2685547,1.1035156-2.0942383,2.4628906-2.6308594,3.769043c-0.5375977-1.3061523-1.3637695-2.6655273-2.6328125-3.769043  c-0.2262573-0.1965942-0.4663696-0.3722534-0.7094727-0.5432739C19.0274658,37.4403687,19.2762451,33.8952637,22.3823242,31.1005859  z M12.0307617,38.9892578c2.6850586-0.2177734,4.8310547,0.3540039,6.3979492,1.7104492  c2.9042969,2.5146484,2.9560547,6.9697266,2.9560547,7.0141602v0.0004883v0.7265625  C16.4150391,47.965332,12.4555664,43.9736328,12.0307617,38.9892578z M67.2670898,38.9892578  c2.6835938-0.2192383,4.831543,0.3540039,6.3974609,1.7104492c2.9042969,2.5141602,2.9560547,6.9697266,2.9560547,7.0141602  v0.0004883v0.7265625C71.6508789,47.965332,67.6918945,43.9736328,67.2670898,38.9892578z M77.6196289,42.9677734  c-0.5375977-1.3061523-1.3637695-2.6655273-2.6328125-3.769043c-0.2268066-0.1971436-0.4674072-0.3733521-0.7111206-0.5447388  c-0.0212402-1.2196655,0.2133179-4.7441406,3.3424683-7.553894c3.1306763,2.8110352,3.3634033,6.3377686,3.3417969,7.555542  c-0.243103,0.1710815-0.4832153,0.3468628-0.7094727,0.5435791C78.9819336,40.3022461,78.15625,41.6616211,77.6196289,42.9677734z   M78.6206055,48.4404297v-0.7265625c0,0,0,0,0-0.0004883c0-0.0444336,0.0317383-4.4736328,2.9423828-7.0053711  c1.5664062-1.3623047,3.7158203-1.9375,6.40625-1.71875C87.5444336,43.972168,83.5878906,47.9624023,78.6206055,48.4404297z"/>
</svg>