<svg xmlns="http://www.w3.org/2000/svg" version="1.1" viewBox="5.0 -15.0 100.0 135.0" fill="white" width="35">
 <path d="m87.582 16.598h-75.164c-1.332 0-2.418 1.2422-2.418 2.7695v52.934c0 1.5273 1.0859 2.7734 2.418 2.7734h3.957c1.7227 4.8477 6.3555 8.3281 11.785 8.3281 5.4297 0 10.066-3.4805 11.789-8.3281h3.4023v5.6953h-1.3281c-0.72656 0-1.3164 0.58984-1.3164 1.3164 0 0.72656 0.58984 1.3164 1.3164 1.3164h41.004c0.72656 0 1.3164-0.58984 1.3164-1.3164 0-0.72656-0.58984-1.3164-1.3164-1.3164h-0.56641v-5.6953h5.1211c1.332 0 2.418-1.2422 2.418-2.7734v-52.934c0-1.5273-1.0859-2.7695-2.418-2.7695zm-69.293 54.297c0-4.9961 3.7305-9.1367 8.5547-9.7812v9.2695l-6.2461 6.8477c-1.4414-1.7148-2.3086-3.9258-2.3086-6.3359zm11.188-9.7812c4.3945 0.58984 7.8828 4.0742 8.4688 8.4648h-8.4688zm-1.3164 19.656c-2.0859 0-4.0234-0.65234-5.6172-1.7617l6.1992-6.793h9.2031c-0.64453 4.8242-4.7852 8.5547-9.7852 8.5547zm23.84-5.6953h1.5039v5.6953h-1.5039zm10.152 0h1.5039v5.6953h-1.5039zm10.156 0h1.5039v5.6953h-1.5039zm-2.6367 5.6953h-3.3828v-26.754h3.3828zm-10.152 0h-3.3828v-21.48h3.3828zm-10.152 0h-3.3828v-31.246h3.3828zm27.078 0v-15.348h3.3828v15.348zm10.922-8.4688c0 0.054688-0.007813 0.10156-0.019532 0.14062h-4.8867v-8.3359c0-0.72656-0.58984-1.3164-1.3164-1.3164h-6.0156c-0.72656 0-1.3164 0.58984-1.3164 1.3164v8.3359h-1.5039v-19.742c0-0.72656-0.58984-1.3164-1.3164-1.3164h-6.0156c-0.72656 0-1.3164 0.58984-1.3164 1.3164v19.742h-1.5039v-14.469c0-0.72656-0.58984-1.3164-1.3164-1.3164h-6.0156c-0.72656 0-1.3164 0.58984-1.3164 1.3164v14.469h-1.5039v-24.234c0-0.72656-0.58984-1.3164-1.3164-1.3164h-6.0156c-0.72656 0-1.3164 0.58984-1.3164 1.3164v24.234h-2.7773c0.0625-0.50781 0.097656-1.0195 0.097656-1.543 0-6.8945-5.6133-12.508-12.512-12.508-6.8984 0-12.508 5.6094-12.508 12.508 0 0.52344 0.035156 1.0352 0.097656 1.543h-3.1016c-0.011719-0.035156-0.019532-0.085937-0.019532-0.14062l0.003907-52.934c0-0.054688 0.007812-0.097657 0.019531-0.13281h74.695c0.011719 0.035156 0.019532 0.082031 0.019532 0.13281v52.934zm-56.562-43.98c0 0.72656-0.58984 1.3164-1.3164 1.3164h-1.125c-0.72656 0-1.3164-0.58984-1.3164-1.3164 0-0.72656 0.58984-1.3164 1.3164-1.3164h1.125c0.72656 0 1.3164 0.58984 1.3164 1.3164zm-7.418 1.3164h-6.4141c-0.72656 0-1.3164-0.58984-1.3164-1.3164 0-0.72656 0.58984-1.3164 1.3164-1.3164h6.4141c0.72656 0 1.3164 0.58984 1.3164 1.3164 0 0.72656-0.58984 1.3164-1.3164 1.3164zm-7.7305-5.9336c0-0.72656 0.58984-1.3164 1.3164-1.3164h12.547c0.72656 0 1.3164 0.58984 1.3164 1.3164s-0.58984 1.3164-1.3164 1.3164h-12.547c-0.72656 0-1.3164-0.58984-1.3164-1.3164zm58.027 9.1523c2.6211 0 4.75-2.1328 4.75-4.75 0-2.6211-2.1328-4.75-4.75-4.75-2.6211 0-4.75 2.1328-4.75 4.75 0 0.21875 0.015625 0.43359 0.046875 0.64453l-7.6836 4.1055c-0.86328-0.88672-2.0703-1.4375-3.4023-1.4375-1.5273 0-2.8906 0.72656-3.7578 1.8516l-7.2773-2.8672v-0.054688c0-2.6211-2.1328-4.75-4.75-4.75-2.6211 0-4.75 2.1328-4.75 4.75 0 0.57031 0.10156 1.1133 0.28516 1.6211l-8.4062 6.1172c-0.80469-0.62891-1.8164-1.0039-2.918-1.0039-2.6211 0-4.75 2.1328-4.75 4.75 0 2.6211 2.1328 4.75 4.75 4.75 2.6211 0 4.75-2.1328 4.75-4.75 0-0.56641-0.10156-1.1133-0.28516-1.6172l8.4102-6.1172c0.80469 0.62891 1.8164 1.0039 2.9141 1.0039 1.668 0 3.1367-0.86328 3.9844-2.168l7.0703 2.7891c-0.015624 0.14844-0.023437 0.30078-0.023437 0.45312 0 2.6211 2.1328 4.75 4.75 4.75 2.6211 0 4.75-2.1328 4.75-4.75 0-0.33984-0.035156-0.67188-0.10547-0.99219l7.5117-4.0156c0.87109 1.0352 2.1758 1.6914 3.6328 1.6914zm-47.367 11.09c-1.168 0-2.1172-0.94922-2.1172-2.1172s0.94922-2.1172 2.1172-2.1172c1.168 0 2.1172 0.94922 2.1172 2.1172s-0.94922 2.1172-2.1172 2.1172zm15.793-11.484c-1.168 0-2.1172-0.94922-2.1172-2.1172s0.94922-2.1172 2.1172-2.1172 2.1172 0.94922 2.1172 2.1172-0.94922 2.1172-2.1172 2.1172zm15.781 5.8242c-1.168 0-2.1172-0.94922-2.1172-2.1172s0.94922-2.1172 2.1172-2.1172 2.1172 0.94922 2.1172 2.1172-0.94922 2.1172-2.1172 2.1172zm15.793-12.297c1.168 0 2.1172 0.94922 2.1172 2.1172s-0.94922 2.1172-2.1172 2.1172c-1.168 0-2.1172-0.94922-2.1172-2.1172s0.94922-2.1172 2.1172-2.1172zm8.75 19.195c0 0.72656-0.58984 1.3164-1.3164 1.3164h-1.1289c-0.72656 0-1.3164-0.58984-1.3164-1.3164 0-0.72656 0.58984-1.3164 1.3164-1.3164h1.1289c0.72656 0 1.3164 0.58984 1.3164 1.3164zm-6.1172 0c0 0.72656-0.58984 1.3164-1.3164 1.3164h-6.4297c-0.72656 0-1.3164-0.58984-1.3164-1.3164 0-0.72656 0.58984-1.3164 1.3164-1.3164h6.4297c0.72656 0 1.3164 0.58984 1.3164 1.3164zm6.1445-4.6172c0 0.72656-0.58984 1.3164-1.3164 1.3164h-12.574c-0.72656 0-1.3164-0.58984-1.3164-1.3164 0-0.72656 0.58984-1.3164 1.3164-1.3164h12.574c0.72656 0 1.3164 0.58984 1.3164 1.3164z"/>
</svg>