<svg xmlns="http://www.w3.org/2000/svg" data-name="Layer 1" viewBox="0 0 95 118.75" x="0px" y="0px" fill="white" width = "30"><path d="M86.567,83.85c-2.954-10.391-6.237-17.8-10.33-23.3A30.391,30.391,0,0,0,59.978,48.982a14.923,14.923,0,0,0,3.317-4.62,10.857,10.857,0,0,0,7.011-5.577,6.936,6.936,0,0,0,5.1-2.135A5.7,5.7,0,0,0,76.6,30.039a6.282,6.282,0,0,0-5.563-3.924c.3-4.664-.047-9.278-2.1-13.316a22.7,22.7,0,0,0-9.355-9.706A15.838,15.838,0,0,0,47.208,1.68,15.836,15.836,0,0,0,34.839,3.093,22.7,22.7,0,0,0,25.484,12.8c-2.054,4.038-2.4,8.652-2.1,13.316a6.283,6.283,0,0,0-5.563,3.924,5.7,5.7,0,0,0,1.192,6.611,7.02,7.02,0,0,0,4.842,2.142c.085,0,.17-.006.255-.01a10.854,10.854,0,0,0,7.03,5.584,15.134,15.134,0,0,0,3.447,4.746A29.711,29.711,0,0,0,20.83,58.006a7.255,7.255,0,0,0-3.4,1.729c-3.511,3.128-4.441,7.517-4.488,11.144A103.9,103.9,0,0,0,8.433,83.85a7.13,7.13,0,0,0,1.424,6.3A9.469,9.469,0,0,0,17.039,94H77.961a9.469,9.469,0,0,0,7.182-3.847A7.13,7.13,0,0,0,86.567,83.85ZM60.794,68.96l-5.259,2.059a1.453,1.453,0,0,0-.77,2l2.994,6-7.194,5.1,6.082-32.272q.35-.276.7-.558c.146.033.291.067.436.1q.608.3,1.177.614Zm-20.5,2.89a1.456,1.456,0,0,0-.826-.831l-2.047-.8a12.3,12.3,0,0,0-.126-3.714,7.151,7.151,0,0,0-2.368-4.17l1.092-10.087q.626-.384,1.315-.747c.375.3.75.594,1.121.885L44.435,84.13l-7.194-5.1,2.994-6A1.453,1.453,0,0,0,40.291,71.85Zm-15.156-13.4-.5-.171-.029-.008a27.149,27.149,0,0,1,4.5-3.516,12.527,12.527,0,0,0-.981,1.778A3.679,3.679,0,0,0,25.135,58.449Zm26.917,2.1a1.425,1.425,0,0,0-.368.28,6.139,6.139,0,0,1-8.629.283l-1.13-6a9.543,9.543,0,0,0,11.241-.481Zm-.782,4.145L47.5,84.7,43.781,64.966a8.985,8.985,0,0,0,7.489-.272ZM27.346,60.8l.291-.854a.763.763,0,0,1,1.445.492l-.291.854a.768.768,0,0,1-.969.476A.772.772,0,0,1,27.346,60.8Zm3.527-3.277a10.586,10.586,0,0,1,1.946-2.755l-.658,6.075-.183-.063A3.678,3.678,0,0,0,30.873,57.524ZM64.148,40.975c.017-.2.03-.4.036-.606l.147-4.7a12.482,12.482,0,0,0,3.093,2.326A7.96,7.96,0,0,1,64.148,40.975ZM20.484,31.2A3.358,3.358,0,0,1,23.6,29.024h.049c.092.822.2,1.641.31,2.456a1.453,1.453,0,1,0,2.879-.4c-.82-5.931-1.238-12.092,1.241-16.967C31.506,7.367,39.417,1.955,46.716,4.581a1.446,1.446,0,0,0,.984,0C55,1.955,62.911,7.367,66.342,14.116c2.479,4.875,2.062,11.036,1.242,16.967a1.453,1.453,0,0,0,1.24,1.639,1.532,1.532,0,0,0,.2.014,1.454,1.454,0,0,0,1.438-1.255c.112-.815.217-1.634.309-2.456h.049A3.355,3.355,0,0,1,73.932,31.2a2.915,2.915,0,0,1-.516,3.332,3.959,3.959,0,0,1-3.37,1.313c-3.927-.614-8.026-8-10.229-11.967-.588-1.059-1.1-1.974-1.52-2.644-2.784-4.39-6.7-5.771-11.089-3.936-4.386-1.835-8.3-.454-11.088,3.936-.425.67-.932,1.585-1.52,2.644-2.2,3.968-6.3,11.353-10.229,11.967A3.958,3.958,0,0,1,21,34.532,2.918,2.918,0,0,1,20.484,31.2Zm6.509,6.79a12.538,12.538,0,0,0,3.1-2.33l.154,4.711c.006.207.02.409.037.61A7.954,7.954,0,0,1,26.993,37.99Zm6.155,2.286-.26-7.983a74.528,74.528,0,0,0,4.253-7c.566-1.02,1.054-1.9,1.434-2.5,2.11-3.328,4.727-4.175,8-2.591a1.456,1.456,0,0,0,1.266,0c3.274-1.584,5.891-.737,8,2.591.379.6.868,1.478,1.434,2.5a74.159,74.159,0,0,0,4.252,7l-.249,7.987c-.136,4.383-3.627,7.11-7.324,10-.807.631-1.642,1.284-2.42,1.943a6.664,6.664,0,0,1-8.642,0c-.776-.658-1.609-1.309-2.414-1.938C36.783,47.391,33.292,44.663,33.148,40.276ZM17.333,75.91a.129.129,0,0,1,.121-.083.109.109,0,0,1,.036.006l1.17.4a.12.12,0,0,1,.069.064.117.117,0,0,1,.008.093.116.116,0,0,1-.063.069.12.12,0,0,1-.094.008l-1.17-.4A.123.123,0,0,1,17.341,76,.122.122,0,0,1,17.333,75.91ZM12.177,88.4a4.423,4.423,0,0,1-.948-3.756c1-3.529,2.026-6.652,3.1-9.456.052.058.1.115.155.171a3.03,3.03,0,0,0,1.992,3.458l1.17.4A3.03,3.03,0,0,0,19.6,73.48l-1.17-.4a3.015,3.015,0,0,0-2.046.034,2.8,2.8,0,0,1-.5-.7c-.191-3.224.264-7.643,3.481-10.508a4.227,4.227,0,0,1,4.331-.876l.71.242a3.675,3.675,0,0,0,2.477,3.25h0a3.685,3.685,0,0,0,3.948-1.06l.709.242a4.227,4.227,0,0,1,2.894,3.339c.8,4.232-1.541,8.009-3.661,10.446a2.819,2.819,0,0,1-.823.253,3,3,0,0,0-1.6-1.277l-1.17-.4A3.03,3.03,0,0,0,25.228,81.8l1.17.4a3.026,3.026,0,0,0,3.689-1.522,4.9,4.9,0,0,0,2.839-1.236,19.576,19.576,0,0,0,3.832-6.361l.167.065-2.841,5.7a1.454,1.454,0,0,0,.46,1.834L45.21,88.243l.537,2.85H23.224V80.988a1.453,1.453,0,0,0-2.906,0V91.093H17.039A6.572,6.572,0,0,1,12.177,88.4Zm15.315-9.029a.118.118,0,0,1-.063.069.116.116,0,0,1-.094.008l-1.169-.4a.124.124,0,1,1,.079-.235l1.17.4a.122.122,0,0,1,.069.063A.12.12,0,0,1,27.492,79.372ZM82.823,88.4a6.572,6.572,0,0,1-4.862,2.692H74.49V80.988a1.454,1.454,0,0,0-2.907,0V91.093H49.253l.537-2.85,10.666-7.566a1.454,1.454,0,0,0,.46-1.834l-2.841-5.7,4.813-1.885a1.452,1.452,0,0,0,.915-1.509l-1.689-15.6a15.275,15.275,0,0,1,5.61,10.617,5.388,5.388,0,0,0-2.709,8.475,1.419,1.419,0,0,0-.056.393v2.3h-2.3a1.453,1.453,0,0,0,0,2.906h2.3v2.3a1.454,1.454,0,0,0,2.907,0v-2.3h2.3a1.453,1.453,0,0,0,0-2.906h-2.3v-.791a5.394,5.394,0,1,0,2.772-10.426,18.68,18.68,0,0,0-3.083-8.882c7.067,5.156,12.085,14.28,16.216,28.812A4.423,4.423,0,0,1,82.823,88.4ZM66.783,69.934a2.488,2.488,0,1,1,2.488,2.488A2.491,2.491,0,0,1,66.783,69.934Z"/></svg>