<svg xmlns="http://www.w3.org/2000/svg" enable-background="new 0 0 66 66" viewBox="0 0 66 82.5" x="0px" y="0px" fill="white"><g><path d="m16.43 8.79 5.51-5.51c.7-.55.54-2.18-.94-2.28h-18.67c-.73 0-1.33.6-1.33 1.33v18.67c.19 1.62 1.78 1.51 2.28.94l5.61-5.61 9.61 9.61c.79.73 1.64.25 1.89 0l5.66-5.66c.52-.52.52-1.36 0-1.89zm3.01 14.33-9.61-9.61c-.26-.26-1.03-.69-1.89 0l-4.28 4.28v-14.12h14.11l-4.17 4.18c-.52.52-.52 1.36 0 1.89l9.61 9.61z"/><path d="m63.67 1h-18.67c-1.48.1-1.64 1.72-.94 2.28l5.51 5.51-9.61 9.61c-.52.52-.52 1.36 0 1.89l5.66 5.66c.25.25 1.09.73 1.89 0l9.61-9.61 5.61 5.61c.49.57 2.09.67 2.28-.94v-18.68c-.01-.73-.61-1.33-1.34-1.33zm-1.34 16.78-4.28-4.28c-.86-.69-1.63-.26-1.89 0l-9.61 9.61-3.77-3.77 9.61-9.61c.52-.52.52-1.36 0-1.89l-4.18-4.18h14.11v14.12z"/><path d="m62.72 44.06-5.61 5.61-9.61-9.61c-.79-.73-1.64-.25-1.89 0l-5.66 5.66c-.52.52-.52 1.36 0 1.89l9.61 9.61-5.51 5.51c-.69.54-.53 2.17.95 2.27h18.67c.73 0 1.33-.6 1.33-1.33v-18.67c-.19-1.62-1.78-1.51-2.28-.94zm-.39 18.27h-14.11l4.18-4.18c.52-.52.52-1.36 0-1.89l-9.61-9.61 3.77-3.77 9.61 9.61c.26.26 1.03.69 1.89 0l4.28-4.28v14.12z"/><path d="m20.38 40.06c-.25-.25-1.09-.73-1.89 0l-9.61 9.61-5.61-5.61c-.49-.57-2.08-.68-2.27.94v18.67c0 .73.6 1.33 1.33 1.33h18.67c1.48-.1 1.64-1.72.94-2.28l-5.51-5.51 9.61-9.61c.52-.52.52-1.36 0-1.89zm-6.78 16.21c-.52.52-.52 1.36 0 1.89l4.18 4.18h-14.11v-14.12l4.28 4.28c.86.69 1.63.26 1.89 0l9.61-9.61 3.77 3.77z"/></g></svg>