<svg xmlns="http://www.w3.org/2000/svg" xmlns:xlink="http://www.w3.org/1999/xlink" width="35" version="1.1" x="0px" y="0px" viewBox="0 0 468.001 585.00125" style="enable-background:new 0 0 468.001 468.001;" xml:space="preserve"><g><g><g><g><g><circle cx="445.556" cy="355.001" r="6.5"/></g><ellipse cx="358.305" cy="325.859" rx="6.492" ry="6.496"/></g></g><g><g><g><g><circle cx="197.847" cy="293.272" r="6.5"/></g></g></g><g><g><path d="M303.584,384.364c-2.762,0-5-2.239-5-5v-6.776c0-2.761,2.238-5,5-5s5,2.239,5,5v6.776       C308.584,382.125,306.345,384.364,303.584,384.364z"/><path d="M258.636,384.364c-2.762,0-5-2.239-5-5v-6.776c0-2.761,2.238-5,5-5s5,2.239,5,5v6.776       C263.636,382.125,261.398,384.364,258.636,384.364z"/></g><g><path d="M280.12,353.043c-2.762,0-5-2.239-5-5v-8.88c0-2.761,2.238-5,5-5s5,2.239,5,5v8.88       C285.12,350.804,282.882,353.043,280.12,353.043z"/><path d="M282.1,417.344c-2.762,0-5-2.239-5-5v-6.776c0-2.761,2.238-5,5-5s5,2.239,5,5v6.776       C287.1,415.105,284.862,417.344,282.1,417.344z"/></g></g></g></g><g><path d="M378.393,55.572c-19.716,0-35.756,15.898-35.756,35.44s16.04,35.441,35.756,35.441c19.717,0,35.757-15.899,35.757-35.441    S398.11,55.572,378.393,55.572z"/><g><path d="M378.393,39.521c-2.762,0-5-2.239-5-5v-8.085c0-2.761,2.238-5,5-5s5,2.239,5,5v8.085     C383.393,37.282,381.155,39.521,378.393,39.521z"/><path d="M338.034,56.067c-1.271,0-2.542-0.481-3.518-1.446l-5.776-5.717c-1.962-1.942-1.979-5.108-0.036-7.071     s5.107-1.979,7.071-0.037l5.776,5.717C344.541,50.473,342.247,56.067,338.034,56.067z"/><path d="M321.316,96.012h-8.169c-2.762,0-5-2.239-5-5s2.238-5,5-5h8.169c2.762,0,5,2.239,5,5S324.078,96.012,321.316,96.012z"/><path d="M332.258,141.676c-4.213,0-6.507-5.594-3.518-8.554l5.776-5.717c1.962-1.941,5.129-1.927,7.071,0.037     c1.942,1.962,1.926,5.128-0.036,7.071l-5.776,5.717C334.801,141.194,333.529,141.676,332.258,141.676z"/><path d="M378.393,160.59c-2.762,0-5-2.239-5-5v-8.085c0-2.761,2.238-5,5-5s5,2.239,5,5v8.085     C383.393,158.351,381.155,160.59,378.393,160.59z"/><path d="M424.53,141.676c-1.271,0-2.543-0.481-3.518-1.446l-5.776-5.717c-1.962-1.942-1.979-5.108-0.036-7.071     c1.942-1.964,5.109-1.979,7.071-0.037l5.776,5.717C431.037,136.082,428.743,141.676,424.53,141.676z"/><path d="M443.64,96.012h-8.169c-2.762,0-5-2.239-5-5s2.238-5,5-5h8.169c2.762,0,5,2.239,5,5S446.402,96.012,443.64,96.012z"/><path d="M418.754,56.067c-4.213,0-6.507-5.594-3.518-8.554l5.776-5.717c1.962-1.942,5.129-1.927,7.071,0.037     c1.942,1.963,1.926,5.128-0.036,7.071l-5.776,5.717C421.297,55.585,420.025,56.067,418.754,56.067z"/></g></g><path d="M315.561,273.527l-48.793-47.25c-0.929-0.899-1.739-1.917-2.408-3.026l-45.715-75.813   c-6.294-10.439-17.769-16.918-29.958-16.918h-0.045l-17.878,0.024v-12.897c9.282-8.632,15.19-21.51,15.19-35.882   c0-2.748-0.242-5.47-0.672-8.152c7.743-2.038,13.479-9.076,13.479-17.447c0-8.734-6.236-16.037-14.491-17.701l-6.057-26.776   C176.658,4.806,170.643,0,163.587,0h-40.901c-7.056,0-13.071,4.806-14.626,11.687l-6.056,26.777   c-8.255,1.665-14.491,8.967-14.491,17.701c0,8.37,5.735,15.408,13.479,17.446c-0.429,2.682-0.672,5.404-0.672,8.152   c0,15.324,6.713,28.956,17.076,37.546v11.202l-19.752-0.02h-0.036c-10.494,0-20.338,4.644-27.009,12.745l-40.653,49.367   c-7.404,8.991-11.702,19.889-12.429,31.517l-5.272,84.378c-7.704,6.478-12.243,16.088-12.243,26.208c0,0,0.078,12.403,0.111,12.559   c0.002,0.009,0.001,0.017,0.003,0.025l9.993,45.844c0.501,2.297,2.535,3.936,4.888,3.936h38.525c2.353,0,4.387-1.638,4.888-3.936   l9.993-45.844c0.002-0.009,0.001-0.017,0.003-0.025c0.033-0.156,0.112-12.559,0.112-12.559c0-10.11-4.521-19.689-12.199-26.166   l3.712-76.324l23.292-24.894l0.015,223.647c-4.726,5.519-7.59,12.676-7.59,20.492v0.667c0,7.581,6.17,13.748,13.755,13.748h35.65   c7.585,0,13.755-6.167,13.755-13.748v-0.667c0-7.816-2.864-14.973-7.59-20.492V321.848c0-6.523,5.305-11.83,11.826-11.83   c6.521,0,11.826,5.307,11.826,11.83v109.12c-4.726,5.519-7.591,12.676-7.591,20.493v0.667c0,7.581,6.17,13.748,13.755,13.748h35.65   c7.585,0,13.755-6.167,13.755-13.748v-0.667c0-7.817-2.864-14.973-7.59-20.492V318.12c0-2.761-2.24-5-5.002-5   c-2.763,0-5.003,2.239-5.003,5v105.05c-8.685-4.307-19.283-4.307-27.969,0V321.848c0-12.037-9.793-21.83-21.831-21.83   c-12.038,0-21.831,9.793-21.831,21.83v101.323c-8.685-4.307-19.283-4.308-27.97,0v-151.05h104.593c2.762,0,5.001-2.237,5.002-4.998   l0.019-54.506l20.009,34.195c2.429,4.15,5.491,7.867,9.103,11.046l53.66,47.23c8.585,7.557,21.636,7.45,29.711-0.247   C324.248,296.441,324.306,281.996,315.561,273.527z M97.516,56.165c0-4.444,3.618-8.06,8.065-8.06h75.111   c4.446,0,8.063,3.616,8.063,8.06s-3.617,8.06-8.063,8.06h-75.111C101.135,64.224,97.516,60.608,97.516,56.165z M110.324,81.763   c0-2.55,0.25-5.07,0.704-7.539h64.218c0.454,2.469,0.704,4.99,0.704,7.539c0,20.413-14.719,37.02-32.813,37.02   C125.043,118.783,110.324,102.176,110.324,81.763z M160.758,124.599v9.235c0,9.192-7.482,16.671-16.679,16.671   s-16.679-7.479-16.679-16.671v-8.355C138.059,130.122,150.349,129.783,160.758,124.599z M49.491,387.07H19.027l-7.813-35.844   h46.092L49.491,387.07z M58.512,334.706v6.52H10.006v-6.52c0-5.198,1.698-10.207,4.711-14.319   c3.745,7.148,11.397,11.783,19.481,11.783c8.467,0,15.844-4.806,19.524-11.893C56.786,324.407,58.512,329.456,58.512,334.706z    M93.327,262.121v-67.466c0-4.446-5.619-6.661-8.657-3.415l-33.202,35.486c-0.809,0.865-1.285,1.989-1.343,3.172l-2.641,54.306   H23.786l3.715-59.461c0.595-9.514,4.112-18.43,10.168-25.785l40.653-49.367c4.763-5.784,11.791-9.1,19.284-9.1h0.027l6.677,0.007   v121.623H93.327z M172.97,170.121h-58.656v-29.613l3.927,0.004c2.973,11.485,13.43,19.993,25.837,19.993   c12.396,0,22.843-8.492,25.828-19.961l3.064-0.004V170.121z M273.062,280.615l-34.382-30.262c-2.809-2.473-5.191-5.363-7.079-8.591   l-29.323-50.112c-2.519-4.303-9.319-2.462-9.321,2.522l-0.023,67.948h-9.958V140.526l5.68-0.008h0.031   c8.702,0,16.895,4.626,21.39,12.08l45.716,75.815c1.115,1.849,2.466,3.547,4.015,5.046l30.44,29.478L273.062,280.615z"/><path d="M463.763,370.482c-1.235-2.47-4.239-3.473-6.711-2.238c-2.471,1.234-3.473,4.238-2.238,6.708   c10.523,21.049-5.984,37.358-25.595,42.183c-14.348,3.531-31.155,2.596-47.329-2.63c-22.091-7.139-64.548-37.189-37.749-63.264   c1.787-1.739,2.021-4.528,0.546-6.538c-11.98-16.342,0.133-39.95,20.308-39.95c14.847-0.175,27,13.939,24.833,28.572   c-0.154,3.121,1.295,5.02,4.348,5.696c9.917,1.199,19.714,3.946,28.8,8.101c2.509,1.147,5.479,0.045,6.63-2.466   c1.149-2.511,0.045-5.478-2.468-6.627c-8.581-3.926-17.74-6.704-27.045-8.257c-0.011-18.904-16.128-35.219-35.139-35.019   c-16.108,0-29.709,10.905-33.831,25.717l-25.625,10.57c-4.058,1.518-4.057,7.727,0,9.244l26.021,10.733   c-20.211,31.94,17.548,62.431,44.199,71.944v17.393l-16.509,6.877c-2.55,1.063-3.756,3.99-2.693,6.539   c1.003,2.403,4.161,3.684,6.542,2.692l9.304-3.876l-3.028,8.786c-1.107,3.212,1.375,6.63,4.73,6.63c2.076,0,4.016-1.302,4.73-3.373   l3.827-11.105l8.278,9.559c1.807,2.087,4.965,2.315,7.056,0.509c2.089-1.807,2.317-4.965,0.508-7.053l-12.741-14.714V425.99   c14.175,3.579,29.301,4.448,43.654,1.367v12.997l-16.508,6.877c-2.55,1.063-3.756,3.99-2.693,6.539   c1.003,2.403,4.161,3.684,6.542,2.692l9.303-3.875l-3.028,8.786c-0.9,2.611,0.489,5.457,3.101,6.356   c2.418,0.832,5.517-0.658,6.359-3.099l3.827-11.105l8.279,9.56c1.807,2.087,4.967,2.315,7.056,0.509   c2.089-1.807,2.317-4.965,0.508-7.053l-12.742-14.714v-17.381C462.03,415.985,475.288,393.533,463.763,370.482z"/></g></svg>