<svg xmlns="http://www.w3.org/2000/svg" xmlns:xlink="http://www.w3.org/1999/xlink" version="1.1" x="0px" y="0px" viewBox="0 0 125 160" enable-background="new 0 0 128 128" xml:space="preserve" fill = "white" width="37"><g><path d="M45.832,46.124H34.734c-0.167,0-0.329-0.056-0.461-0.158l-4.881-3.802c0.04,0.243,0.081,0.485,0.091,0.737   c0.026,0.793,0.214,1.455,0.558,1.969l1.4,2.043c0.632,0.96,1.62,1.614,2.788,1.852l7.645,1.487h3.958   c1.139,0,2.064-0.926,2.064-2.063C47.896,47.05,46.971,46.124,45.832,46.124z"/><path d="M42.757,51.952l-8.82-1.715c-1.568-0.32-2.895-1.203-3.74-2.487l-1.397-2.039c-0.507-0.758-0.779-1.684-0.814-2.757   c-0.079-2.063-1.55-3.779-3.577-4.169c-1.158-0.226-2.351,0.023-3.314,0.681c-0.977,0.654-1.641,1.657-1.877,2.827l-3.089,15.902   l2.311,0.449l6.368,1.236l1.149-5.918l-5.657-8.393c-0.231-0.344-0.141-0.81,0.203-1.042c0.345-0.231,0.81-0.14,1.041,0.203   l5.66,8.397l14.752,2.876c1.127,0.222,2.215-0.534,2.429-1.624c0.108-0.541-0.004-1.097-0.315-1.567   C43.851,52.493,43.442,52.077,42.757,51.952z"/><path d="M26.588,91.414h3.676V79.56c0-0.889-0.135-1.771-0.399-2.622l-3.656-11.69l0.134,10.096l-0.004,16.07H26.588z"/><path d="M31.873,105.991c-0.471-0.363-1.004-0.774-1.521-1.75c-0.068-0.127-0.098-0.271-0.085-0.416l0.931-10.912h-3.921   l-0.922,10.81c0.326,0.551,0.632,0.787,1.009,1.078c0.476,0.366,1.015,0.782,1.531,1.778c0.335,0.634,0.348,1.363,0.077,2.017   h3.214c0.327,0,0.611-0.161,0.78-0.44c0.166-0.276,0.176-0.597,0.025-0.88C32.625,106.57,32.293,106.314,31.873,105.991z"/><path d="M81.742,95.539c0-1.447-1.172-2.625-2.611-2.625c-1.448,0-2.627,1.178-2.627,2.625c0,0.584,0.183,1.129,0.527,1.577   c0.148,0.192,0.194,0.445,0.123,0.678s-0.25,0.416-0.481,0.492c-1.063,0.352-2.471,0.53-4.185,0.53   c-1.049,0-2.074-0.066-2.964-0.15c1.376,1.316,3.337,2.847,4.954,2.98c0.614,0.054,1.14-0.109,1.582-0.492   c0.313-0.271,0.786-0.237,1.058,0.077c0.271,0.313,0.236,0.787-0.077,1.058c-0.667,0.576-1.452,0.867-2.338,0.867   c-0.115,0-0.231-0.005-0.35-0.015c-2.634-0.218-5.471-2.923-6.723-4.258c0.035,1.024,0.28,2.529,1.278,3.763   c0.813,1.006,2.009,1.682,3.558,2.027c0.043,0.011,0.089,0.014,0.13,0.033c0.55,0.114,1.144,0.188,1.78,0.22   c2.512-0.125,4.354-0.895,5.476-2.289c1.68-2.089,1.222-4.908,1.217-4.936c-0.037-0.218,0.023-0.441,0.166-0.61   s0.353-0.267,0.573-0.267h1.043l-0.843-0.712C81.84,95.97,81.742,95.76,81.742,95.539z"/><path d="M104.145,103.141c-0.118,0.01-0.234,0.015-0.35,0.015c-0.886,0-1.671-0.291-2.338-0.867   c-0.313-0.271-0.348-0.744-0.077-1.058c0.271-0.314,0.745-0.348,1.058-0.077c0.443,0.383,0.971,0.545,1.582,0.492   c1.617-0.133,3.578-1.664,4.954-2.98c-0.89,0.084-1.915,0.15-2.964,0.15c-1.713,0-3.121-0.178-4.185-0.53   c-0.231-0.076-0.41-0.26-0.481-0.492s-0.025-0.485,0.123-0.678c0.345-0.448,0.527-0.993,0.527-1.577   c0-1.447-1.179-2.625-2.627-2.625c-1.439,0-2.611,1.178-2.611,2.625c0,0.221-0.098,0.431-0.267,0.573l-0.843,0.712h1.043   c0.221,0,0.43,0.098,0.572,0.266c0.142,0.168,0.203,0.391,0.167,0.608c-0.004,0.028-0.452,2.873,1.226,4.948   c1.122,1.388,2.961,2.155,5.467,2.279c0.637-0.032,1.23-0.105,1.78-0.22c0.041-0.019,0.087-0.022,0.13-0.033   c1.549-0.345,2.744-1.021,3.558-2.027c0.998-1.234,1.243-2.739,1.278-3.763C109.615,100.218,106.778,102.923,104.145,103.141z"/><path d="M26.447,105.99c-0.47-0.362-1.003-0.773-1.521-1.748c-0.068-0.128-0.098-0.272-0.085-0.417l0.931-10.912h-0.184h-9.756   l1.902,10.846c0.008,0.042,0.012,0.086,0.012,0.129v3.796c0,0.503,0.409,0.912,0.912,0.912h8.102c0.327,0,0.611-0.161,0.78-0.44   c0.166-0.276,0.176-0.597,0.025-0.88C27.199,106.569,26.867,106.313,26.447,105.99z"/><path d="M15.996,74.889c0.294,4.512,0.321,6.617,0.348,8.652c0.025,1.904,0.054,3.895,0.301,7.873h8.193l0.004-16.061   l-0.186-13.975l-4.476-0.869l-4.476-0.869c-2.198,5.442-2.128,10.341,0.212,14.958C15.963,74.689,15.99,74.788,15.996,74.889z"/><path d="M16.976,24.831l3.965,0.772l1.473,0.287l-0.28,1.436c-0.465,2.394,1.104,4.721,3.497,5.188   c0.28,0.055,0.566,0.083,0.851,0.083c2.107,0,3.932-1.505,4.336-3.58l0.279-1.436l1.473,0.287l3.962,0.771   c0.049,0.009,0.097,0.014,0.145,0.014c0.352,0,0.665-0.249,0.735-0.606c0.079-0.407-0.187-0.8-0.593-0.88l-3.963-0.771l0.28-1.437   c0.302-1.553-0.02-3.131-0.903-4.442c-0.885-1.312-2.227-2.201-3.779-2.502c-0.376-0.073-0.759-0.11-1.138-0.11   c-2.826,0-5.27,2.016-5.809,4.793l-0.279,1.435l-3.964-0.771c-0.406-0.075-0.8,0.187-0.88,0.593   C16.304,24.358,16.569,24.752,16.976,24.831z"/><circle cx="93.695" cy="108.473" r="1.279"/><circle cx="86.467" cy="108.473" r="1.279"/><circle cx="69.828" cy="61.818" r="1.279"/><circle cx="87.525" cy="71.759" r="1.279"/><circle cx="53.088" cy="69.227" r="1.279"/><circle cx="58.437" cy="59.316" r="1.28"/><circle cx="62.152" cy="74.486" r="1.279"/><circle cx="74.375" cy="83.586" r="1.279"/><circle cx="58.967" cy="87.196" r="1.28"/><path d="M75.801,108.473c0,0.414,0.336,0.75,0.75,0.75s0.75-0.336,0.75-0.75v-2.512c-0.471,0.139-0.973,0.245-1.5,0.323V108.473z"/><path d="M71.541,108.473c0,0.414,0.336,0.75,0.75,0.75s0.75-0.336,0.75-0.75v-2.174c-0.528-0.075-1.028-0.181-1.5-0.315V108.473z"/><path d="M69.524,98.667c-0.604-0.578-1.097-1.116-1.395-1.474c-0.115-0.139-0.272-0.214-0.437-0.246v-0.012v-2.44   c0-0.414-0.336-0.75-0.75-0.75s-0.75,0.336-0.75,0.75v1.269l-1.614-1.615c-0.293-0.293-0.768-0.293-1.061,0   c-0.293,0.292-0.293,0.768,0,1.061l1.614,1.615h-1.268c-0.414,0-0.75,0.336-0.75,0.75s0.336,0.75,0.75,0.75h2.263h0.815   c0.053,0,0.103-0.019,0.154-0.03c0.109,0.127,0.291,0.331,0.533,0.589c-0.006-0.159-0.007-0.309-0.004-0.441   C68.104,98.511,68.766,98.595,69.524,98.667z"/><path d="M114.633,96.824h-1.268l1.614-1.615c0.293-0.293,0.293-0.768,0-1.061c-0.293-0.293-0.768-0.293-1.061,0l-1.614,1.615   v-1.269c0-0.414-0.336-0.75-0.75-0.75s-0.75,0.336-0.75,0.75v2.44v0.012c-0.164,0.032-0.321,0.108-0.437,0.247   c-0.298,0.358-0.79,0.896-1.395,1.474c0.759-0.072,1.421-0.156,1.897-0.225c0.003,0.133,0.002,0.282-0.004,0.441   c0.242-0.259,0.424-0.462,0.533-0.589c0.052,0.011,0.102,0.03,0.154,0.03h0.815h2.263c0.414,0,0.75-0.336,0.75-0.75   S115.047,96.824,114.633,96.824z"/><path d="M101.197,108.473c0,0.414,0.336,0.75,0.75,0.75s0.75-0.336,0.75-0.75v-2.188c-0.527-0.079-1.029-0.185-1.5-0.323V108.473z"/><path d="M105.457,108.473c0,0.414,0.336,0.75,0.75,0.75s0.75-0.336,0.75-0.75v-2.489c-0.472,0.135-0.972,0.24-1.5,0.315V108.473z"/></g></svg>