<svg xmlns="http://www.w3.org/2000/svg" xmlns:xlink="http://www.w3.org/1999/xlink" version="1.1" x="0px" y="0px" viewBox="0 0 100 125" style="enable-background:new 0 0 100 100;" xml:space="preserve"><path d="M98.5,55.9c-6.6,0.4-13,1.4-19.1,2.9v-0.6c4.5-1.2,7.9-7,7.9-13.8c-0.6-18.7-18.9-18.7-19.5,0c0,7.6,4.2,13.8,9.5,14v0.9  c-6.5,1.7-12.7,4-18.6,6.9c-3.4-1.2-6.9-2.1-10.4-2.8c-4.7-0.9-12.4-2.3-22.3-0.3v-0.5c7.3-2.4,6.5-18.2-1.6-18.4  c-8.5,0.2-8.8,17.5-0.6,18.6v0.8C18.4,64.9,13.3,67,8.5,70c-2.3-0.6-4.5-1.2-6.9-1.6c-0.6-0.1-1.3,0.4-1.3,1v26.7  c0,0.6,0.5,1.1,1.1,1.1h97.2c0.6,0,1.1-0.5,1.1-1.1V56.9C99.7,56.3,99.1,55.8,98.5,55.9z M70,44.3c0-6.6,3.4-11.9,7.6-11.9  c9.4,0.5,10.1,20.3,1.8,23.5v-7.8l2.9-3c1-1-0.6-2.5-1.5-1.5c0,0-1.4,1.4-1.4,1.4v-3.2c0-0.6-0.5-1.1-1.1-1.1s-1.1,0.5-1.1,1.1v9  l-2.9-3.3c-0.9-1-2.5,0.4-1.6,1.4c0,0,4.5,5,4.5,5v2.3C73.2,56,70,50.8,70,44.3z M19.9,53.5c0-3.9,2-7.2,4.5-7.2  c5.3,0.3,5.9,11.4,1.6,13.9v-8.4c0-1.4-2.1-1.4-2.1,0c0,0,0,4.7,0,4.7l-1.2-1.3c-0.9-1-2.5,0.4-1.6,1.4c0,0,2.8,3.1,2.8,3.1v0.9  C21.7,60.2,19.9,57.1,19.9,53.5z M23.9,65.8c0.3,1.4,2.3,0.9,2.1-0.5c9.7-2,17.3-0.6,21.9,0.3c2.8,0.5,5.5,1.2,8.1,2  c-1.6,0.9-3.3,1.8-4.8,2.7c-7.3-1.4-13.6-3.1-25.8-0.8c-3.2,0.7-6.4,1.7-9.4,2.9c-1.6-0.6-3.1-1.1-4.6-1.6  C15.2,68.6,19.5,66.9,23.9,65.8z M40.4,74.8c-5.4-0.4-10.9-0.1-16.3,1.2c-1.7-0.9-3.5-1.7-5.3-2.4c2.3-0.8,4.6-1.5,7-2  c10.3-2.1,17.5-0.6,22.8,0.4c-1.6,1-3.2,2.1-4.8,3.2C42.6,75,41.5,74.9,40.4,74.8z M41.3,77c-2.2,1.7-4.3,3.4-6.3,5.3  c-2.5-1.7-5.1-3.3-7.8-4.8C31.8,76.7,36.6,76.5,41.3,77z M2.5,95.1v-7.2c7.2,1.5,14.2,3.9,20.8,7.2H2.5z M27.9,95.1  c-7.9-4.4-16.6-7.5-25.4-9.4v-6.4c12.5,2.6,24.5,8,34.7,15.8H27.9z M40.6,95.1c-11-8.9-24.2-15.1-38.1-17.9v-6.4  C19,74.2,34.9,82.8,46.9,95.1H40.6z M97.5,95.1H71.1c8.5-3,17.5-4.7,26.4-5.4V95.1z M97.5,87.5c-11.2,0.9-22.2,3.3-32.6,7.5H49.8  c-0.1-0.1-0.1-0.2-0.2-0.2c14.3-9.2,31-14.5,47.9-15.7V87.5z M97.5,77C80,78.3,62.8,83.7,48.1,93.3c-1.6-1.6-3.2-3.1-4.9-4.5  C58.8,76.9,78,70,97.5,68.6V77z M97.5,66.5c-20.1,1.4-39.9,8.5-56,20.8c-1.6-1.3-3.2-2.5-4.9-3.8c11.6-10.4,25.5-18,40.6-22v1.7  c0,1.4,2.1,1.4,2.1,0c0,0,0-2.2,0-2.2c5.8-1.5,11.9-2.4,18.1-2.9V66.5z M18.9,25.3c10.4-0.4,10.4-15.4,0-15.8  C8.4,9.9,8.4,24.9,18.9,25.3z M18.9,11.7c7.6,0.2,7.6,11.3,0,11.5C11.3,22.9,11.3,11.9,18.9,11.7z M66.3,21.9c0,0,23.2,0,23.2,0  c6.6-0.2,7.1-9.7,0.5-10.5c-1-3.4-5.4-5.2-8.5-3.4c-3.1-6.9-13.6-5.6-14.9,1.9C58.6,9.8,58.2,21.5,66.3,21.9z M67.3,12.2  c0.6,0.2,1.3-0.3,1.3-1C68.8,4.5,78.3,3.5,80,10c0.2,0.8,1.2,1.1,1.8,0.5c2.1-2.1,6-0.8,6.4,2.1c0.1,0.5,0.6,0.9,1.1,0.9  c1.8-0.2,3.4,1.3,3.4,3.1c0,1.7-1.4,3.1-3.1,3.1H66.3C60.6,19.4,61.7,11,67.3,12.2z M37,39.5h16.9c6.1-0.2,6.1-9,0-9.3  c-1.1-5.4-8.7-6.4-11.2-1.5c-2.4-1.2-5.4,0.1-6.3,2.6C31.4,32.2,31.9,39.5,37,39.5z M37,33.5c0.6,0.1,1.2-0.3,1.3-0.9  c0.2-1.2,1.2-2.1,2.5-2.1c0.6,0,1.3,0.2,1.7,0.7c0.6,0.6,1.6,0.3,1.8-0.5c1.1-4.4,7.5-3.7,7.7,0.8c0,0.3,0.2,0.6,0.4,0.8  c0.4,0.4,1.1,0.1,1.5,0.1c3.3,0.1,3.3,4.9,0,5c0,0-16.9,0-16.9,0C34.4,37.4,34.4,33.5,37,33.5z M11.9,24.5c0.4,0.4,0.4,1.1,0,1.5  l-2,2c-0.2,0.2-0.5,0.3-0.8,0.3c-0.9,0-1.4-1.2-0.8-1.8l2-2C10.8,24.1,11.5,24.1,11.9,24.5z M25.8,9.1c0,0,2-2,2-2  c1-1,2.5,0.5,1.5,1.5l-2,2C26.4,11.6,24.9,10.1,25.8,9.1z M5.2,16.5H8C8.6,16.5,9,17,9,17.5S8.6,18.6,8,18.6c0,0-2.8,0-2.8,0  C3.8,18.6,3.8,16.5,5.2,16.5z M29.8,16.5c0,0,2.8,0,2.8,0c1.4,0,1.4,2.1,0,2.1h-2.8C28.4,18.6,28.4,16.5,29.8,16.5z M8.4,8.6  c-1-1,0.5-2.5,1.5-1.5c0,0,2,2,2,2c0.7,0.6,0.2,1.8-0.8,1.8c-0.3,0-0.5-0.1-0.8-0.3L8.4,8.6z M27.3,24.5c0,0,2,2,2,2  c1,1-0.5,2.5-1.5,1.5c0,0-2-2-2-2C24.9,25,26.4,23.5,27.3,24.5z M17.8,6.6V3.8c0-1.4,2.1-1.4,2.1,0c0,0,0,2.8,0,2.8  C19.9,8,17.8,8,17.8,6.6z M19.9,28.4v2.8c0,0.6-0.5,1.1-1.1,1.1s-1.1-0.5-1.1-1.1v-2.8C17.8,27.1,19.9,27.1,19.9,28.4z" fill="white" stroke-width="10" /></svg>