<svg xmlns="http://www.w3.org/2000/svg" version="1.1" viewBox="0 0 16.933 21.166249999999998" xml:space="preserve" x="0px" y="0px" fill="white"><path d="m5.2895 16.404c0.14611 0.0017 0.26598-0.11537 0.26768-0.26148l0.015503-1.619c0-0.3208 0.017479-0.56457 0.051676-0.76584h7.8702c0.72831 0 1.3219-0.59408 1.3219-1.3224v-6.7484l0.02377 0.012402c0.51621 0.26712 1.1613 0.077865 1.4392-0.42995 0.2778-0.50787 0.07484-1.1508-0.44131-1.418l-5.5681-2.8768c-0.5727-0.29595-1.1674-0.44717-1.803-0.44545l1e-5 2.3e-5c-0.63563 0.0017256-1.3124 0.15249-1.8944 0.45734l-5.4802 2.867c-6.9e-4 -2.7e-6 -0.00138-2.7e-6 -0.00207 0-0.51486 0.26993-0.71428 0.91572-0.43356 1.4221 0.28067 0.50645 0.92641 0.69166 1.4412 0.42168l0.019637-0.010335v3.9646c-0.053932 0.028322-0.10798 0.059823-0.1633 0.10077-0.22449 0.16618-0.4315 0.45313-0.49454 0.86145-0.097695 0.0425-0.20429 0.07368-0.29145 0.12454l-0.13591-0.27285c-0.064904-0.12919-0.22384-0.18419-0.35553-0.11731-0.13021 0.06494-0.18355 0.22288-0.11937 0.35347l0.19844 0.39584c-0.056363 0.07828-0.10441 0.16454-0.14159 0.25838-0.14662 0.37009-0.11138 0.84433 0.17363 1.326 6.7712e-4 0.0014 0.001366 0.0027 0.002067 0.0041 0.34199 0.55829 0.51779 0.80419 0.51779 1.8376-1.4e-6 5e-4 0.015503 1.619 0.015503 1.619 0.0017 0.14611 0.12157 0.2632 0.26768 0.26148zm3.1362-13.785c0.29131-6.093e-4 0.58262 0.067498 0.848 0.20464l5.0136 2.5895v7.0218c0 0.44431-0.3484 0.79323-0.79271 0.79323h-1.0588v-3.9688c0-0.72832-0.59356-1.3224-1.3219-1.3224h-1.588c-0.72831 0-1.3245 0.59408-1.3245 1.3224v3.9688h-2.4153c0.08036-0.17437 0.18246-0.3385 0.30592-0.54674 0.285-0.48166 0.32068-0.95592 0.17415-1.326-0.037156-0.09385-0.085235-0.1801-0.14159-0.25838l0.19792-0.39584c0.064248-0.13045 0.011158-0.28834-0.11885-0.35347-0.13115-0.06674-0.2888-0.01281-0.35346 0.11731l-0.13694 0.27388c-0.093754-0.05157-0.19521-0.08932-0.293-0.12557-0.077104-0.49937-0.3773-0.84539-0.72243-0.99891l0.060461-0.30127c0.029484-0.14361-0.063467-0.28385-0.20722-0.31264-0.12907-0.026146-0.28148 0.051331-0.31212 0.20877l-0.066662 0.33383c-0.29875 0.053644-0.52556 0.24472-0.72863 0.4315-0.20752-0.1943-0.43783-0.39289-0.7369-0.43873l-0.059944-0.29817v-3.8282l4.932-2.5818c0.26466-0.13861 0.55566-0.20816 0.84697-0.20877zm1.1002 5.8472h1.588c0.44431 0 0.79271 0.34892 0.79271 0.79323v3.9688h-3.176v-3.9688c0-0.44431 0.35098-0.79323 0.79529-0.79323z" color="#000000" fill="white" style=""/></svg>