<svg xmlns="http://www.w3.org/2000/svg" version="1.1" viewBox="-5.0 -10.0 110.0 135.0" fill="white" stroke-width = "10" width = "35">
 <g>
  <path d="m46 18v-5h8v5h5v8h-5v5h-8v-5h-5v-8zm6-3v5h5v4h-5v5h-4v-5h-5v-4h5v-5z" fill-rule="evenodd"/>
  <path d="m39 62c0-0.55078-0.44922-1-1-1s-1 0.44922-1 1v4c0 0.55078 0.44922 1 1 1s1-0.44922 1-1z"/>
  <path d="m62.492 12c-2.9336-3.6562-7.4375-6-12.492-6s-9.5586 2.3438-12.492 6h-13.379c-1.3594 0-2.6602 0.55469-3.6055 1.5352l-13.129 13.652c-0.89453 0.93359-1.3945 2.1758-1.3945 3.4648v2.3477c0 2.7617 2.2383 5 5 5h2v46h-2.5c-2.4844 0-4.5 2.0156-4.5 4.5s2.0156 4.5 4.5 4.5h79c2.4844 0 4.5-2.0156 4.5-4.5s-2.0156-4.5-4.5-4.5h-2.5v-19c0-0.55078-0.44922-1-1-1s-1 0.44922-1 1v19h-41v-37c0-2.7617-2.2383-5-5-5h-14c-2.7617 0-5 2.2383-5 5v37h-5v-46h13c0.55078 0 1-0.44922 1-1s-0.44922-1-1-1h-17c-1.6562 0-3-1.3438-3-3v-2h18c0.55078 0 1-0.44922 1-1s-0.44922-1-1-1h-17.504c0.10156-0.15234 0.21484-0.29297 0.33984-0.42578l13.129-13.652c0.56641-0.58984 1.3477-0.92188 2.1641-0.92188h12.012c-1.3633 2.3516-2.1406 5.0859-2.1406 8 0 6.0234 3.3281 11.27 8.2461 14h-8.2461c-0.55078 0-1 0.44922-1 1s0.44922 1 1 1h51v21c0 0.55078 0.44922 1 1 1s1-0.44922 1-1v-21h2c2.7617 0 5-2.2383 5-5v-2.2578c0-1.3438-0.54297-2.6328-1.5039-3.5742l-14.039-13.742c-0.93359-0.91406-2.1875-1.4258-3.4961-1.4258zm1.5078 10c0 7.7305-6.2695 14-14 14s-14-6.2695-14-14 6.2695-14 14-14 14 6.2695 14 14zm-6.2461 14h31.246c1.6562 0 3-1.3438 3-3v-2h-18c-0.55078 0-1-0.44922-1-1s0.44922-1 1-1h17.441c-0.10156-0.14453-0.21484-0.27734-0.34375-0.40234l-14.039-13.742c-0.55859-0.54688-1.3125-0.85547-2.0977-0.85547h-11.102c1.3633 2.3516 2.1406 5.0859 2.1406 8 0 6.0234-3.3281 11.27-8.2461 14zm-32.754 8h14c1.6562 0 3 1.3438 3 3v37h-20v-37c0-1.6562 1.3438-3 3-3zm64.5 42c1.3789 0 2.5 1.1211 2.5 2.5s-1.1211 2.5-2.5 2.5h-79c-1.3789 0-2.5-1.1211-2.5-2.5s1.1211-2.5 2.5-2.5z" fill-rule="evenodd"/>
  <path d="m61.426 55.953c-1.9414 0.29688-3.4258 1.9766-3.4258 4 0 2.2344 1.8125 4.0469 4.0469 4.0469h6.9062c2.2344 0 4.0469-1.8125 4.0469-4.0469 0-2.0234-1.4883-3.7031-3.4258-4-0.40625-1.8789-2.0742-3.2852-4.0742-3.2852s-3.668 1.4062-4.0742 3.2852zm6.4805 1.7656-0.28906-1.3477c-0.21094-0.97266-1.082-1.7031-2.1172-1.7031s-1.9062 0.73047-2.1172 1.7031l-0.28906 1.3477-1.3633 0.21094c-0.98047 0.14844-1.7305 1-1.7305 2.0234 0 1.1289 0.91797 2.0469 2.0469 2.0469h6.9062c1.1289 0 2.0469-0.91797 2.0469-2.0469 0-1.0234-0.75-1.875-1.7305-2.0234z" fill-rule="evenodd"/>
  <path d="m67.168 49.023c0 1.1172-0.74609 2.0234-1.668 2.0234s-1.668-0.90625-1.668-2.0234c0-1.1172 0.74609-2.0234 1.668-2.0234s1.668 0.90625 1.668 2.0234z"/>
  <path d="m61.332 53.07c0 1.1172-0.74609 2.0234-1.6641 2.0234-0.92188 0-1.668-0.90625-1.668-2.0234 0-1.1172 0.74609-2.0234 1.668-2.0234 0.91797 0 1.6641 0.90625 1.6641 2.0234z"/>
  <path d="m73 53.07c0 1.1172-0.74609 2.0234-1.668 2.0234-0.91797 0-1.668-0.90625-1.668-2.0234 0-1.1172 0.75-2.0234 1.668-2.0234 0.92188 0 1.668 0.90625 1.668 2.0234z"/>
  <path d="m51 47c0-2.7617 2.2383-5 5-5h19c2.7617 0 5 2.2383 5 5v17c0 2.7617-2.2383 5-5 5h-19c-2.7617 0-5-2.2383-5-5zm5-3h19c1.6562 0 3 1.3438 3 3v17c0 1.6562-1.3438 3-3 3h-19c-1.6562 0-3-1.3438-3-3v-17c0-1.6562 1.3438-3 3-3z" fill-rule="evenodd"/>
 </g>
</svg>